<svg xmlns="http://www.w3.org/2000/svg" viewBox="0 0 1080 444" width="1080" height="444">
  <g fill="#000000" fill-rule="evenodd"><path d="M 268.5,0.0 L 288.0,3.5 L 306.5,16.0 L 313.5,25.0 L 319.5,37.0 L 323.5,50.0 L 325.5,66.0 L 324.5,102.0 L 320.5,126.0 L 279.5,271.0 L 276.5,284.0 L 276.5,297.0 L 280.0,300.5 L 294.0,300.5 L 314.0,293.5 L 338.0,277.5 L 357.0,257.5 L 359.5,259.0 L 351.5,278.0 L 338.5,296.0 L 323.0,310.5 L 308.0,320.5 L 289.0,329.5 L 271.0,334.5 L 252.0,337.5 L 223.0,337.5 L 199.0,329.5 L 181.5,315.0 L 169.5,295.0 L 164.5,271.0 L 165.5,250.0 L 171.5,220.0 L 214.5,79.0 L 215.5,62.0 L 213.5,56.0 L 209.0,52.5 L 199.0,52.5 L 182.5,66.0 L 167.5,90.0 L 152.0,136.5 L 151.5,115.0 L 147.5,96.0 L 135.5,73.0 L 122.0,60.5 L 107.0,52.5 L 79.0,45.5 L 57.0,44.5 L 55.5,43.0 L 54.5,25.0 L 45.5,7.0 L 91.0,7.5 L 110.0,11.5 L 130.0,20.5 L 143.0,30.5 L 152.5,42.0 L 159.5,59.0 L 162.0,72.5 L 184.5,39.0 L 205.0,19.5 L 228.0,6.5 L 240.0,2.5 L 262.5,0.0 Z M 0.0,255.5 L 2.5,233.0 L 6.5,217.0 L 10.5,203.0 L 12.0,201.5 L 13.5,203.0 L 11.5,200.0 L 18.5,180.0 L 20.5,180.0 L 19.5,176.0 L 27.5,153.0 L 31.5,129.0 L 33.0,129.5 L 34.5,127.0 L 34.0,123.5 L 32.5,127.0 L 32.5,112.0 L 30.5,103.0 L 21.5,88.0 L 43.0,85.5 L 69.0,86.5 L 90.0,91.5 L 112.0,102.5 L 115.5,106.0 L 113.0,105.5 L 111.5,109.0 L 116.0,111.5 L 112.5,108.0 L 115.0,108.5 L 117.0,106.5 L 128.5,120.0 L 132.5,128.0 L 137.5,143.0 L 137.5,152.0 L 139.5,152.0 L 139.5,157.0 L 137.0,156.5 L 136.5,160.0 L 138.0,162.5 L 140.5,161.0 L 138.5,182.0 L 135.5,191.0 L 132.5,192.0 L 134.5,194.0 L 131.5,198.0 L 132.5,201.0 L 130.5,201.0 L 131.5,204.0 L 129.5,205.0 L 130.5,207.0 L 127.5,211.0 L 127.5,216.0 L 124.5,219.0 L 124.5,227.0 L 121.5,231.0 L 122.5,233.0 L 116.5,248.0 L 117.5,249.0 L 115.5,250.0 L 116.5,253.0 L 114.5,259.0 L 112.5,259.0 L 113.5,263.0 L 111.5,263.0 L 111.5,271.0 L 109.5,272.0 L 110.5,275.0 L 107.5,289.0 L 105.5,290.0 L 106.5,315.0 L 108.5,323.0 L 117.5,337.0 L 113.0,338.5 L 70.0,337.5 L 52.0,334.5 L 34.0,326.5 L 24.0,319.5 L 11.5,306.0 L 2.5,287.0 L 0.0,269.5 Z M 486.0,322.5 L 463.0,322.5 L 442.0,318.5 L 423.0,311.5 L 405.0,300.5 L 393.5,290.0 L 382.5,275.0 L 373.5,256.0 L 366.5,228.0 L 365.5,191.0 L 368.5,172.0 L 376.5,149.0 L 386.5,132.0 L 402.0,115.5 L 412.0,108.5 L 435.0,98.5 L 460.0,93.5 L 492.0,93.5 L 508.0,96.5 L 526.0,102.5 L 548.0,115.5 L 563.5,131.0 L 575.5,151.0 L 581.5,168.0 L 586.5,194.0 L 586.5,224.0 L 581.5,248.0 L 574.5,267.0 L 561.5,288.0 L 551.0,298.5 L 535.0,309.5 L 514.0,317.5 L 486.0,322.5 Z M 1079.0,314.5 L 1077.0,318.5 L 1029.0,318.5 L 1021.5,311.0 L 1011.0,289.5 L 994.0,306.5 L 977.0,316.5 L 960.0,321.5 L 932.0,322.5 L 908.0,317.5 L 894.0,309.5 L 883.5,299.0 L 873.5,280.0 L 869.5,258.0 L 871.5,232.0 L 874.5,223.0 L 883.5,208.0 L 900.0,194.5 L 923.0,184.5 L 951.0,179.5 L 1001.0,177.5 L 1002.5,174.0 L 1000.5,159.0 L 995.0,152.5 L 985.0,147.5 L 965.0,147.5 L 954.0,149.5 L 921.0,161.5 L 914.0,162.5 L 894.5,120.0 L 892.5,112.0 L 928.0,99.5 L 963.0,93.5 L 1013.0,94.5 L 1033.0,99.5 L 1045.0,105.5 L 1063.5,122.0 L 1072.5,137.0 L 1076.5,148.0 L 1078.5,161.0 L 1079.0,211.5 Z M 763.0,318.5 L 693.0,318.5 L 687.5,314.0 L 641.5,190.0 L 606.5,102.0 L 608.0,96.5 L 681.0,96.5 L 685.5,99.0 L 709.5,180.0 L 726.0,244.5 L 733.5,224.0 L 768.5,100.0 L 771.0,97.5 L 777.0,96.5 L 847.0,97.5 L 848.5,99.0 L 769.5,310.0 L 766.5,316.0 L 763.0,318.5 Z M 36.5,125.0 L 37.5,117.0 L 36.0,119.5 L 35.5,112.0 L 34.0,111.5 L 33.5,122.0 L 35.0,119.5 L 36.5,125.0 Z M 480.5,266.0 L 487.0,264.5 L 495.0,259.5 L 506.5,246.0 L 514.5,226.0 L 516.5,202.0 L 513.5,183.0 L 502.5,162.0 L 492.0,152.5 L 484.0,148.5 L 473.0,147.5 L 456.0,155.5 L 444.5,170.0 L 436.5,194.0 L 436.5,220.0 L 442.5,240.0 L 449.5,251.0 L 459.0,260.5 L 466.0,264.5 L 473.0,266.5 L 480.5,266.0 Z M 978.5,267.0 L 990.0,262.5 L 998.5,254.0 L 1002.5,246.0 L 1003.5,221.0 L 1002.0,219.5 L 982.0,220.5 L 965.0,224.5 L 956.0,228.5 L 949.5,236.0 L 948.5,255.0 L 950.5,260.0 L 956.0,265.5 L 962.0,267.5 L 978.5,267.0 Z M 23.5,316.0 L 24.5,315.0 L 23.0,315.5 L 23.5,313.0 L 20.5,312.0 L 19.0,306.5 L 18.5,311.0 L 23.5,316.0 Z M 930.0,425.5 L 919.5,425.0 L 919.5,400.0 L 915.0,394.5 L 908.0,394.5 L 904.0,396.5 L 901.5,401.0 L 901.5,424.0 L 900.0,425.5 L 892.0,425.5 L 890.5,424.0 L 890.5,372.0 L 892.0,370.5 L 895.0,369.5 L 901.5,372.0 L 901.0,389.5 L 908.0,385.5 L 919.0,385.5 L 928.5,393.0 L 930.5,398.0 L 930.0,425.5 Z M 1055.0,426.5 L 1041.0,424.5 L 1034.5,419.0 L 1030.5,409.0 L 1031.5,397.0 L 1036.0,390.5 L 1044.0,385.5 L 1056.0,385.5 L 1063.0,389.5 L 1062.5,372.0 L 1065.0,369.5 L 1072.0,370.5 L 1073.5,372.0 L 1073.5,424.0 L 1072.0,425.5 L 1064.0,425.5 L 1062.0,422.5 L 1055.0,426.5 Z M 546.0,426.5 L 533.0,426.5 L 523.0,422.5 L 516.5,417.0 L 511.5,407.0 L 510.5,399.0 L 512.5,389.0 L 522.0,377.5 L 530.0,373.5 L 545.0,372.5 L 554.0,375.5 L 560.5,381.0 L 555.0,387.5 L 542.0,381.5 L 533.0,382.5 L 528.0,385.5 L 522.5,393.0 L 521.5,401.0 L 523.5,408.0 L 528.0,413.5 L 538.0,417.5 L 546.0,416.5 L 549.5,414.0 L 549.5,400.0 L 551.0,398.5 L 559.5,399.0 L 559.5,420.0 L 553.0,424.5 L 546.0,426.5 Z M 783.0,425.5 L 775.0,425.5 L 773.5,424.0 L 773.5,383.0 L 758.0,382.5 L 756.5,381.0 L 756.5,374.0 L 758.0,372.5 L 800.0,372.5 L 801.5,374.0 L 801.5,380.0 L 799.0,382.5 L 784.5,383.0 L 784.5,424.0 L 783.0,425.5 Z M 998.0,425.5 L 963.0,425.5 L 961.5,424.0 L 961.5,374.0 L 963.0,372.5 L 971.0,372.5 L 972.5,374.0 L 972.5,415.0 L 996.0,415.5 L 999.5,419.0 L 998.0,425.5 Z M 1023.0,426.5 L 1011.0,424.5 L 1005.5,416.0 L 1005.5,395.0 L 999.5,394.0 L 999.5,386.0 L 1005.5,385.0 L 1005.5,378.0 L 1007.0,376.5 L 1015.0,376.5 L 1016.5,378.0 L 1016.0,386.5 L 1025.0,385.5 L 1026.5,387.0 L 1025.0,394.5 L 1016.5,395.0 L 1016.5,415.0 L 1020.0,417.5 L 1026.0,416.5 L 1028.5,420.0 L 1028.5,424.0 L 1023.0,426.5 Z M 581.0,425.5 L 572.0,425.5 L 570.5,424.0 L 570.5,387.0 L 572.0,385.5 L 580.0,385.5 L 581.0,390.5 L 587.0,385.5 L 594.0,385.5 L 594.5,393.0 L 585.0,396.5 L 581.5,402.0 L 581.0,425.5 Z M 624.0,426.5 L 616.0,426.5 L 607.0,423.5 L 602.5,420.0 L 597.5,411.0 L 597.5,401.0 L 600.5,394.0 L 612.0,385.5 L 624.0,385.5 L 629.0,387.5 L 634.5,392.0 L 638.5,400.0 L 638.5,408.0 L 637.0,409.5 L 614.0,408.5 L 608.5,410.0 L 614.0,416.5 L 618.0,417.5 L 626.0,416.5 L 629.0,413.5 L 632.5,414.0 L 635.5,420.0 L 632.0,423.5 L 624.0,426.5 Z M 670.0,426.5 L 662.0,426.5 L 653.0,423.5 L 648.5,420.0 L 643.5,411.0 L 643.5,401.0 L 646.5,394.0 L 658.0,385.5 L 670.0,385.5 L 675.0,387.5 L 680.5,392.0 L 684.5,400.0 L 684.5,408.0 L 683.0,409.5 L 659.0,408.5 L 654.5,410.0 L 660.0,416.5 L 667.0,417.5 L 677.0,413.5 L 681.5,418.0 L 678.0,423.5 L 670.0,426.5 Z M 731.0,425.5 L 721.5,425.0 L 721.5,402.0 L 719.5,397.0 L 716.0,394.5 L 709.0,394.5 L 703.5,399.0 L 702.5,425.0 L 693.0,425.5 L 691.5,424.0 L 691.5,387.0 L 693.0,385.5 L 701.0,385.5 L 702.0,390.5 L 709.0,385.5 L 721.0,385.5 L 729.5,392.0 L 732.5,404.0 L 732.5,424.0 L 731.0,425.5 Z M 826.0,426.5 L 817.0,426.5 L 807.0,422.5 L 799.5,412.0 L 798.5,404.0 L 802.5,393.0 L 813.0,385.5 L 826.0,385.5 L 832.0,388.5 L 839.5,398.0 L 840.5,408.0 L 839.0,409.5 L 817.0,408.5 L 809.5,410.0 L 816.0,416.5 L 824.0,417.5 L 833.0,413.5 L 837.5,418.0 L 835.0,422.5 L 826.0,426.5 Z M 871.0,426.5 L 862.0,426.5 L 853.0,422.5 L 845.5,412.0 L 845.5,400.0 L 847.5,395.0 L 851.0,390.5 L 860.0,385.5 L 875.0,386.5 L 883.5,394.0 L 882.0,396.5 L 876.0,398.5 L 871.0,394.5 L 865.0,393.5 L 860.0,395.5 L 856.5,400.0 L 855.5,408.0 L 860.0,415.5 L 868.0,417.5 L 873.0,415.5 L 875.0,412.5 L 879.0,412.5 L 883.5,416.0 L 880.0,422.5 L 871.0,426.5 Z M 628.5,401.0 L 627.5,398.0 L 622.0,393.5 L 613.0,394.5 L 607.5,401.0 L 628.5,401.0 Z M 674.5,401.0 L 673.5,398.0 L 668.0,393.5 L 661.0,393.5 L 654.5,400.0 L 655.0,401.5 L 674.5,401.0 Z M 829.5,401.0 L 829.5,399.0 L 823.0,393.5 L 813.0,395.5 L 809.5,401.0 L 829.5,401.0 Z M 1053.5,417.0 L 1061.5,412.0 L 1062.5,402.0 L 1058.0,395.5 L 1050.0,393.5 L 1042.5,399.0 L 1040.5,407.0 L 1044.0,414.5 L 1053.5,417.0 Z"/></g>
  <g fill="#0c9448" fill-rule="evenodd"><path d="M 97.0,339.5 L 58.0,336.5 L 45.0,332.5 L 39.0,329.5 L 39.0,327.5 L 35.0,327.5 L 26.0,321.5 L 12.5,308.0 L 6.5,298.0 L 1.5,283.0 L 0.5,245.0 L 2.5,232.0 L 27.5,147.0 L 31.5,127.0 L 30.5,106.0 L 26.5,96.0 L 21.5,90.0 L 23.5,89.0 L 21.5,87.0 L 43.0,84.5 L 79.0,86.5 L 105.0,95.5 L 119.5,106.0 L 116.0,100.5 L 111.5,99.0 L 113.0,95.5 L 110.0,97.5 L 101.0,91.5 L 96.0,91.5 L 93.5,89.0 L 96.0,85.5 L 103.0,88.5 L 106.5,88.0 L 105.0,83.5 L 98.0,81.5 L 95.0,78.5 L 85.5,80.0 L 95.5,82.0 L 95.5,85.0 L 91.0,88.5 L 85.0,87.5 L 82.5,85.0 L 84.5,83.0 L 79.0,81.5 L 48.0,81.5 L 48.0,83.5 L 61.5,84.0 L 47.0,84.5 L 44.5,81.0 L 43.5,61.0 L 36.0,47.5 L 44.0,47.5 L 46.0,49.5 L 48.0,47.5 L 55.0,46.5 L 79.0,47.5 L 79.5,53.0 L 84.5,54.0 L 80.0,55.5 L 94.0,55.5 L 89.5,54.0 L 95.0,52.5 L 112.0,57.5 L 111.5,60.0 L 115.0,62.5 L 116.5,62.0 L 112.5,60.0 L 116.0,58.5 L 115.5,60.0 L 119.5,62.0 L 118.0,63.5 L 120.0,62.5 L 123.0,65.5 L 124.0,63.5 L 127.0,65.5 L 128.5,67.0 L 127.5,69.0 L 131.5,73.0 L 131.0,76.5 L 129.0,72.5 L 127.5,76.0 L 129.5,77.0 L 127.5,79.0 L 128.0,85.5 L 133.5,75.0 L 133.0,71.5 L 134.5,77.0 L 132.5,79.0 L 134.0,79.5 L 135.0,77.5 L 136.0,79.5 L 137.0,77.5 L 138.5,79.0 L 136.5,81.0 L 138.5,85.0 L 137.5,87.0 L 139.0,86.5 L 142.0,90.5 L 144.5,90.0 L 143.5,93.0 L 145.5,93.0 L 144.5,95.0 L 147.5,99.0 L 146.0,101.5 L 143.5,97.0 L 146.5,111.0 L 150.5,113.0 L 149.5,124.0 L 151.5,136.0 L 150.0,135.5 L 148.5,138.0 L 149.0,139.5 L 150.5,138.0 L 150.5,142.0 L 143.0,164.5 L 142.5,152.0 L 144.0,156.5 L 145.5,150.0 L 141.5,151.0 L 138.5,133.0 L 135.5,130.0 L 131.5,116.0 L 130.0,118.5 L 126.5,111.0 L 122.0,106.5 L 120.5,107.0 L 134.5,127.0 L 137.5,136.0 L 141.5,160.0 L 141.5,173.0 L 116.5,252.0 L 107.5,288.0 L 107.5,318.0 L 111.5,328.0 L 118.5,337.0 L 117.0,338.5 L 97.0,339.5 Z M 127.5,108.0 L 127.5,102.0 L 124.5,100.0 L 124.0,96.5 L 121.0,95.5 L 118.5,100.0 L 124.0,101.5 L 126.5,105.0 L 125.5,108.0 L 127.5,108.0 Z M 141.5,131.0 L 140.5,122.0 L 143.5,119.0 L 144.0,115.5 L 145.5,119.0 L 144.0,111.5 L 143.5,115.0 L 136.5,125.0 L 137.0,127.5 L 139.5,128.0 L 139.5,131.0 L 141.5,131.0 Z"/></g>
  <g fill="#dae028" fill-rule="evenodd"><path d="M 142.0,170.5 L 140.5,170.0 L 140.5,154.0 L 137.5,139.0 L 134.5,130.0 L 124.5,113.0 L 111.0,100.5 L 93.0,91.5 L 74.0,86.5 L 44.0,85.5 L 42.5,84.0 L 40.5,65.0 L 32.5,49.0 L 33.0,45.5 L 76.0,45.5 L 97.0,49.5 L 120.0,59.5 L 133.5,71.0 L 145.5,91.0 L 151.5,117.0 L 151.5,141.0 L 142.0,170.5 Z"/></g>
</svg>