<svg version="1.1" id="Layer_1" xmlns="http://www.w3.org/2000/svg" xmlns:xlink="http://www.w3.org/1999/xlink" x="0px" y="0px"
	 width="100%" viewBox="0 0 1080 444" enable-background="new 0 0 1080 444" xml:space="preserve">
<path fill="#F6F6F6" opacity="1.000000" stroke="none" 
	d="
M1081.000000,319.000000 
	C1081.000000,360.986908 1081.000000,402.973785 1081.000000,444.938110 
	C721.000000,444.938110 361.000000,444.938110 1.000000,444.938110 
	C1.000000,389.560089 1.000000,334.243927 1.392585,278.554443 
	C2.520661,281.018372 3.253997,283.856201 3.991991,286.692810 
	C8.727745,304.895233 19.650772,318.339508 35.690231,327.820007 
	C47.071148,334.546906 59.447605,338.561676 72.575729,339.053711 
	C88.240067,339.640839 103.943230,339.192108 119.678101,339.192108 
	C107.419952,324.267670 107.459732,313.651886 108.944824,298.650635 
	C109.985878,288.134705 112.305031,277.623016 115.202179,267.436157 
	C123.796913,237.215652 132.960403,207.156906 142.215759,176.852264 
	C143.668427,173.759003 145.096054,170.925095 145.891953,167.923660 
	C148.434189,158.336578 150.741974,148.687347 153.467865,138.833557 
	C154.242081,135.895508 154.688721,133.185989 155.476898,130.484192 
	C156.521042,128.904251 157.392136,127.368568 157.900055,125.720924 
	C162.794724,109.842583 166.617569,93.562851 175.627441,79.252007 
	C181.446335,70.009613 188.113785,61.491264 197.567215,55.727676 
	C207.430664,49.714104 216.752686,54.654388 216.963623,66.186104 
	C217.065430,71.752602 216.464218,77.565399 214.903336,82.892181 
	C201.617020,128.234146 187.866272,173.440201 174.627441,218.795776 
	C169.251938,237.211975 165.627518,256.007874 166.899078,275.401855 
	C169.025238,307.830261 191.264145,333.174561 223.213852,338.255432 
	C245.133545,341.741272 266.851471,339.046844 287.653534,331.502106 
	C320.617950,319.546265 345.563690,298.584381 358.752167,265.234619 
	C359.471252,263.416260 359.750366,261.423889 360.234314,259.512543 
	C358.165314,260.330963 357.048096,261.507141 355.998108,262.740601 
	C345.182434,275.446320 332.220032,285.519470 317.768555,293.716583 
	C308.232849,299.125366 298.094208,302.785431 286.977722,302.792908 
	C279.982666,302.797638 276.505920,298.803986 277.340851,291.918091 
	C277.860931,287.628784 278.373596,283.278259 279.536133,279.136688 
	C289.473419,243.735947 299.553253,208.375214 309.601471,173.005646 
	C316.881897,147.378586 324.351410,121.785027 326.435272,95.046501 
	C327.735016,78.369614 327.890930,61.677986 322.926666,45.498421 
	C315.667114,21.838297 302.119324,4.672636 275.565033,1.726890 
	C275.352448,1.703307 275.187286,1.251739 275.000000,1.000000 
	C543.547974,1.000000 812.095947,1.000000 1081.000000,1.000000 
	C1081.000000,55.023556 1081.000000,109.047897 1080.605713,163.439392 
	C1079.876587,161.845612 1079.510742,159.889404 1079.211670,157.923035 
	C1075.911865,136.226395 1064.888794,119.572632 1046.453125,107.770844 
	C1032.043701,98.546471 1015.732056,96.384407 999.193665,95.265251 
	C962.941040,92.812004 928.368713,100.241951 894.791992,113.323746 
	C894.402100,113.475662 894.178772,114.055115 893.817261,114.511230 
	C901.125366,131.188705 908.423401,147.843170 915.704468,164.458984 
	C924.515625,161.279129 932.595764,158.224548 940.769287,155.444473 
	C954.419495,150.801575 968.364502,147.711166 982.909912,148.967728 
	C998.052490,150.275894 1007.630920,165.096527 1002.372925,180.078140 
	C994.038757,180.078140 985.400635,179.823181 976.782410,180.129456 
	C956.787415,180.840073 936.864624,182.215988 917.768311,189.009186 
	C893.666626,197.583054 876.571350,212.540100 872.441650,239.109573 
	C870.255920,253.172241 871.795654,267.047241 875.853821,280.586945 
	C881.304443,298.772308 892.708008,312.201447 910.736572,318.264160 
	C920.331909,321.490906 930.892822,322.663818 941.090698,323.113403 
	C963.306030,324.092773 983.732361,318.702911 1000.157227,302.573212 
	C1004.270386,298.534027 1008.040344,294.145325 1012.401367,289.450775 
	C1015.934814,296.485260 1019.303406,302.265045 1021.803406,308.398865 
	C1025.056763,316.381439 1029.794922,321.189087 1039.071411,319.251251 
	C1039.858032,319.086945 1040.727173,319.360443 1041.557373,319.353455 
	C1054.704956,319.243042 1067.852417,319.120087 1081.000000,319.000000 
M559.929138,127.576813 
	C551.189270,121.020027 543.125061,113.183266 533.583008,108.145981 
	C504.721527,92.909813 474.069885,91.807541 442.741364,99.256073 
	C409.077026,107.259941 386.525116,127.734245 374.950195,160.109970 
	C364.408447,189.595779 364.724609,219.584686 372.866638,249.527985 
	C381.642242,281.801270 401.997345,303.885834 433.122711,316.018188 
	C459.100952,326.144226 485.522888,325.532928 512.186035,319.148102 
	C540.594116,312.345428 561.907593,296.443054 574.646240,269.946045 
	C587.048279,244.149429 590.773743,216.877701 586.459167,188.653198 
	C583.040222,166.287842 575.945251,145.334518 559.929138,127.576813 
M752.944458,319.476044 
	C766.445984,319.967896 766.805969,319.786041 770.189148,310.903595 
	C795.526062,244.382477 820.869324,177.863800 846.189758,111.336380 
	C847.679688,107.421715 848.988892,103.438271 850.419006,99.382500 
	C823.596741,99.382500 797.498718,99.382500 771.411865,99.382500 
	C756.902466,148.598495 742.478638,197.524033 727.702454,247.645065 
	C726.917419,244.849030 726.480347,243.320068 726.058777,241.786835 
	C713.712708,196.883362 701.385376,151.974747 689.007324,107.080116 
	C686.820862,99.150085 686.234131,98.808876 677.922058,98.809677 
	C655.925476,98.811806 633.928833,98.812408 611.932251,98.833855 
	C610.539551,98.835213 609.146912,99.009964 607.342529,99.131866 
	C608.012939,101.006966 608.481995,102.402023 609.007080,103.775665 
	C622.725952,139.666794 636.488342,175.541336 650.163391,211.449112 
	C662.829651,244.708054 675.401367,278.002991 688.019470,311.280243 
	C690.781250,318.563690 692.375305,319.745361 698.535889,319.704254 
	C716.363220,319.585205 734.191101,319.538239 752.944458,319.476044 
M547.328735,418.048706 
	C545.363831,418.344849 543.402588,418.866516 541.433350,418.898956 
	C531.809448,419.057526 523.973206,412.400421 523.039001,403.417114 
	C521.953857,392.983002 527.780273,385.218262 538.116760,383.402496 
	C544.788208,382.230591 550.517151,384.356354 554.538513,387.896576 
	C557.101562,386.199921 559.419983,384.665222 561.770386,383.109344 
	C556.125549,376.720703 549.380371,374.713623 542.029114,374.561371 
	C531.573975,374.344757 522.543701,377.695953 516.960083,387.028748 
	C511.716766,395.792694 511.561462,405.039215 516.458923,414.118774 
	C525.342468,430.588135 547.996338,429.818237 559.013489,422.281067 
	C559.857300,421.703766 560.820190,420.550232 560.842529,419.642761 
	C561.000305,413.235626 560.926392,406.822754 560.926392,400.592712 
	C557.443726,400.592712 554.723328,400.592712 551.804443,400.592712 
	C551.804443,404.803711 551.608887,408.637634 551.866943,412.440735 
	C552.070190,415.436066 551.117554,417.233398 547.328735,418.048706 
M1038.553467,392.012115 
	C1031.268799,400.002075 1030.362671,412.027466 1036.454468,419.865784 
	C1042.883423,428.137848 1053.113159,429.352417 1064.721313,423.222137 
	C1066.021851,429.883240 1070.639893,425.674774 1073.900879,426.589539 
	C1073.900879,408.262909 1073.900879,390.512695 1073.900879,372.566711 
	C1070.804565,372.566711 1067.947388,372.566711 1064.803955,372.566711 
	C1064.803955,378.845520 1064.803955,384.763672 1064.803955,391.202881 
	C1055.856812,385.419281 1047.374512,385.330963 1038.553467,392.012115 
M931.323120,424.458496 
	C931.258362,416.805054 931.403259,409.142548 931.071960,401.500671 
	C930.715271,393.274506 925.369263,387.384338 917.339600,387.227295 
	C912.277527,387.128296 907.181580,388.760010 901.717651,389.679871 
	C901.717651,384.428070 901.717651,378.374542 901.717651,372.492493 
	C898.458069,372.492493 895.706848,372.492493 892.908936,372.492493 
	C892.908936,390.691406 892.908936,408.588837 892.908936,426.534424 
	C895.990540,426.534424 898.764526,426.534424 902.010254,426.534424 
	C902.010254,419.687225 901.931824,413.077820 902.031067,406.471100 
	C902.142212,399.068848 906.184021,394.985748 913.003845,395.166260 
	C919.104553,395.327698 921.867859,398.800812 921.891052,406.400391 
	C921.911682,413.137970 921.895447,419.875641 921.895447,427.593567 
	C925.685303,426.657013 928.491028,425.963684 931.323120,424.458496 
M617.780151,387.002380 
	C607.147034,388.657013 600.716370,394.714935 599.794983,403.945221 
	C598.735901,414.554474 603.223145,422.371948 612.360352,425.835968 
	C621.464050,429.287354 632.065613,426.973267 636.890015,420.372162 
	C635.395752,418.699005 633.880493,417.002350 632.421875,415.369171 
	C621.371277,421.904022 612.027893,419.804565 609.278625,409.924805 
	C619.441895,409.924805 629.459045,409.924805 639.390137,409.924805 
	C640.958618,396.051483 632.631714,387.097473 617.780151,387.002380 
M838.314758,410.057404 
	C841.467590,410.441040 841.229126,408.320251 841.201050,406.244324 
	C841.068176,396.395355 834.407715,388.554718 824.920898,387.135223 
	C814.628357,385.595184 805.233215,390.836090 802.097839,399.866913 
	C798.753845,409.498260 802.483276,419.848419 810.937073,424.398712 
	C820.447693,429.517853 832.627502,427.857147 838.402222,420.380951 
	C836.921387,418.759491 835.395569,417.088806 833.928772,415.482788 
	C822.440918,421.780853 812.975891,419.617462 811.019592,410.056702 
	C819.853027,410.056702 828.598938,410.056702 838.314758,410.057404 
M684.911133,409.836060 
	C687.023315,404.694244 685.173340,400.050781 682.656860,395.773438 
	C678.364258,388.477051 669.291687,385.327087 660.413818,387.619568 
	C651.523132,389.915314 646.101135,396.452881 645.674622,405.391449 
	C645.189941,415.546967 649.774353,422.747620 658.779480,425.975006 
	C667.728333,429.182129 677.929932,426.901581 682.920105,420.475037 
	C681.428528,418.779907 679.918945,417.064270 678.464844,415.411682 
	C667.241028,421.920654 656.937561,419.451752 655.577515,410.049988 
	C665.076904,410.049988 674.551453,410.049988 684.911133,409.836060 
M693.953430,392.677185 
	C693.953430,403.938019 693.953430,415.198853 693.953430,426.577087 
	C697.324585,426.577087 700.090393,426.577087 703.331177,426.577087 
	C703.331177,423.071594 703.334106,419.777954 703.330383,416.484283 
	C703.326416,412.987793 703.175293,409.484711 703.338501,405.996216 
	C703.658020,399.169647 708.042664,394.974304 714.450134,395.147858 
	C720.488525,395.311401 723.156372,398.590057 723.195618,406.010132 
	C723.231384,412.780640 723.203247,419.551453 723.203247,426.465332 
	C726.728455,426.465332 729.628784,426.465332 732.699402,426.465332 
	C732.699402,417.668030 733.127686,409.181549 732.577881,400.758911 
	C732.037476,392.481567 725.874695,386.919037 717.546875,387.153076 
	C712.768250,387.287323 708.033630,388.987213 703.250000,389.988403 
	C702.277710,384.444824 697.627930,388.164673 693.970276,387.352997 
	C693.970276,389.134125 693.970276,390.430084 693.953430,392.677185 
M775.257141,410.493286 
	C775.257141,415.606750 775.257141,420.720215 775.257141,425.877136 
	C778.858582,425.877136 781.886963,425.877136 785.229248,425.877136 
	C785.229248,411.546906 785.229248,397.615601 785.229248,383.193573 
	C790.936523,383.193573 796.342163,383.193573 801.932129,383.193573 
	C801.932129,380.282349 801.932129,377.869110 801.932129,375.309906 
	C787.334900,375.309906 772.966980,375.309906 758.558655,375.309906 
	C758.558655,378.058502 758.558655,380.458191 758.558655,383.455750 
	C764.264832,383.455750 769.649597,383.455750 775.257202,383.455750 
	C775.257202,392.536865 775.257202,401.016418 775.257141,410.493286 
M963.386292,410.493317 
	C963.386292,415.603027 963.386292,420.712738 963.386292,426.055237 
	C975.842285,426.055237 987.752502,426.055237 999.864746,426.055237 
	C999.864746,423.392120 999.864746,420.954773 999.864746,417.929108 
	C990.971497,417.929108 982.263489,417.929108 973.020264,417.929108 
	C973.020264,403.308746 973.020264,389.266937 973.020264,375.289886 
	C969.553162,375.289886 966.652832,375.289886 963.386353,375.289886 
	C963.386353,386.907501 963.386353,398.201721 963.386292,410.493317 
M849.018677,397.772766 
	C844.263123,409.894104 848.415955,421.203278 859.346497,425.660126 
	C868.003967,429.190186 881.953308,426.961700 884.681824,417.596313 
	C882.514526,416.362579 880.284912,415.093323 878.180481,413.895416 
	C871.714355,420.078430 864.735168,420.710419 859.843079,415.858734 
	C855.513794,411.565247 855.339111,402.982819 859.490967,398.560944 
	C864.357422,393.377991 871.058899,393.889587 878.485962,400.157196 
	C880.628052,398.871674 882.834229,397.547607 884.947876,396.279114 
	C880.172546,384.395325 857.185242,383.030762 849.018677,397.772766 
M1017.025574,386.187958 
	C1017.025574,383.776154 1017.025574,381.364349 1017.025574,379.116760 
	C1013.504944,379.116760 1010.757874,379.116760 1007.911743,379.116760 
	C1007.768677,382.168060 1007.640503,384.903290 1007.515015,387.579987 
	C1005.134949,387.761108 1003.351685,387.896790 1001.475098,388.039581 
	C1001.475098,390.490601 1001.475098,392.711578 1001.475098,394.897583 
	C1003.683533,395.131897 1005.585022,395.333618 1007.779480,395.566437 
	C1007.779480,402.052856 1007.772339,408.181549 1007.781738,414.310242 
	C1007.789673,419.509064 1009.392883,423.993103 1014.564270,425.978424 
	C1019.840454,428.003967 1025.153076,427.937256 1030.288818,424.593964 
	C1029.318115,422.260162 1028.510498,420.318817 1027.720093,418.418579 
	C1020.325134,420.177155 1017.458374,419.164886 1017.188232,414.269196 
	C1016.844421,408.036926 1017.104980,401.771301 1017.104980,395.073914 
	C1020.821716,395.073914 1024.065186,395.073914 1027.497192,395.073914 
	C1027.497192,392.537292 1027.497192,390.456238 1027.497192,388.257690 
	C1023.928894,387.851746 1020.569519,387.469604 1017.025574,386.187958 
M592.584900,387.093140 
	C589.055176,388.327026 585.525513,389.560913 582.083618,390.764099 
	C581.433044,384.180603 576.419250,388.401855 573.165283,387.305389 
	C573.165283,400.676819 573.165283,413.561737 573.165283,426.491760 
	C576.262451,426.491760 579.013062,426.491760 582.161377,426.491760 
	C582.161377,419.909210 582.112122,413.611877 582.176941,407.315735 
	C582.229004,402.250305 584.034241,398.133972 589.174622,396.382568 
	C591.135193,395.714539 593.297974,395.640167 596.568726,395.095306 
	C595.397827,392.095398 594.406677,389.555878 592.584900,387.093140 
z"/>
<path fill="#1A1A1A" opacity="1.000000" stroke="none" 
	d="
M274.532410,1.000000 
	C275.187286,1.251739 275.352448,1.703307 275.565033,1.726890 
	C302.119324,4.672636 315.667114,21.838297 322.926666,45.498421 
	C327.890930,61.677986 327.735016,78.369614 326.435272,95.046501 
	C324.351410,121.785027 316.881897,147.378586 309.601471,173.005646 
	C299.553253,208.375214 289.473419,243.735947 279.536133,279.136688 
	C278.373596,283.278259 277.860931,287.628784 277.340851,291.918091 
	C276.505920,298.803986 279.982666,302.797638 286.977722,302.792908 
	C298.094208,302.785431 308.232849,299.125366 317.768555,293.716583 
	C332.220032,285.519470 345.182434,275.446320 355.998108,262.740601 
	C357.048096,261.507141 358.165314,260.330963 360.234314,259.512543 
	C359.750366,261.423889 359.471252,263.416260 358.752167,265.234619 
	C345.563690,298.584381 320.617950,319.546265 287.653534,331.502106 
	C266.851471,339.046844 245.133545,341.741272 223.213852,338.255432 
	C191.264145,333.174561 169.025238,307.830261 166.899078,275.401855 
	C165.627518,256.007874 169.251938,237.211975 174.627441,218.795776 
	C187.866272,173.440201 201.617020,128.234146 214.903336,82.892181 
	C216.464218,77.565399 217.065430,71.752602 216.963623,66.186104 
	C216.752686,54.654388 207.430664,49.714104 197.567215,55.727676 
	C188.113785,61.491264 181.446335,70.009613 175.627441,79.252007 
	C166.617569,93.562851 162.794724,109.842583 157.900055,125.720924 
	C157.392136,127.368568 156.521042,128.904251 155.302719,130.154190 
	C154.509323,127.240326 154.231689,124.664154 153.968628,121.628700 
	C154.039108,111.334152 152.470032,101.769493 148.948303,92.580818 
	C148.417130,91.194885 147.072418,90.120743 146.072647,88.487015 
	C146.598145,83.195137 144.170364,80.069618 140.021759,77.585037 
	C139.798462,74.329453 139.637390,71.405975 139.482819,68.600578 
	C136.762634,69.126961 134.957748,69.476212 133.115967,69.490540 
	C132.743271,68.108742 132.710907,66.736450 132.009140,66.082031 
	C130.500092,64.674820 128.737549,63.466728 126.911484,62.489834 
	C124.389587,61.140690 121.713402,60.079933 118.998123,58.558945 
	C116.967079,57.439686 115.041214,56.657154 113.008865,55.535648 
	C109.542313,53.615265 106.225922,51.925945 102.788826,50.534874 
	C102.013161,50.220940 100.817078,50.945759 99.514206,51.178917 
	C98.836792,51.032734 98.459702,50.900047 97.991592,50.402611 
	C94.919380,49.172100 91.799118,48.622532 88.981941,47.383743 
	C78.850616,42.928715 68.443390,45.259136 57.916397,45.752525 
	C57.732910,45.727459 57.381359,45.844055 57.408875,45.386726 
	C57.876328,31.591749 56.347115,18.845177 44.833752,8.067647 
	C50.651737,8.067647 54.781601,8.111034 58.910305,8.060173 
	C77.257278,7.834157 95.625931,7.764753 113.270454,13.771505 
	C133.953262,20.812582 150.879242,32.434372 158.610336,54.006390 
	C160.919739,60.450321 162.002945,67.333702 163.801575,74.639847 
	C169.025192,66.450241 173.792099,58.529537 178.992294,50.904335 
	C197.512115,23.748165 222.020706,5.859163 255.495178,2.045415 
	C256.358612,1.947044 257.166321,1.359445 258.000000,1.000002 
	C263.354919,1.000000 268.709869,1.000000 274.532410,1.000000 
z"/>
<path fill="#010101" opacity="1.000000" stroke="none" 
	d="
M1081.000000,318.666687 
	C1067.852417,319.120087 1054.704956,319.243042 1041.557373,319.353455 
	C1040.727173,319.360443 1039.858032,319.086945 1039.071411,319.251251 
	C1029.794922,321.189087 1025.056763,316.381439 1021.803406,308.398865 
	C1019.303406,302.265045 1015.934814,296.485260 1012.401367,289.450775 
	C1008.040344,294.145325 1004.270386,298.534027 1000.157227,302.573212 
	C983.732361,318.702911 963.306030,324.092773 941.090698,323.113403 
	C930.892822,322.663818 920.331909,321.490906 910.736572,318.264160 
	C892.708008,312.201447 881.304443,298.772308 875.853821,280.586945 
	C871.795654,267.047241 870.255920,253.172241 872.441650,239.109573 
	C876.571350,212.540100 893.666626,197.583054 917.768311,189.009186 
	C936.864624,182.215988 956.787415,180.840073 976.782410,180.129456 
	C985.400635,179.823181 994.038757,180.078140 1002.372925,180.078140 
	C1007.630920,165.096527 998.052490,150.275894 982.909912,148.967728 
	C968.364502,147.711166 954.419495,150.801575 940.769287,155.444473 
	C932.595764,158.224548 924.515625,161.279129 915.704468,164.458984 
	C908.423401,147.843170 901.125366,131.188705 893.817261,114.511230 
	C894.178772,114.055115 894.402100,113.475662 894.791992,113.323746 
	C928.368713,100.241951 962.941040,92.812004 999.193665,95.265251 
	C1015.732056,96.384407 1032.043701,98.546471 1046.453125,107.770844 
	C1064.888794,119.572632 1075.911865,136.226395 1079.211670,157.923035 
	C1079.510742,159.889404 1079.876587,161.845612 1080.605713,163.903259 
	C1081.000000,169.022095 1081.000000,174.044189 1080.591675,179.700775 
	C1080.171265,191.201462 1080.159180,202.067688 1080.079834,213.402374 
	C1080.046631,229.598648 1080.080566,245.326462 1080.060181,261.516724 
	C1080.003052,278.835602 1079.975098,295.692108 1080.041138,312.548248 
	C1080.046997,314.033417 1080.665894,315.516144 1081.000000,317.000000 
	C1081.000000,317.444458 1081.000000,317.888885 1081.000000,318.666687 
M980.874451,268.549927 
	C992.540161,265.056213 1001.229736,258.080017 1003.558167,245.817703 
	C1005.081482,237.795181 1004.604004,229.392761 1005.020508,221.202042 
	C992.701477,220.202301 976.662537,222.517227 965.375000,226.703156 
	C951.124023,231.988052 945.356140,245.085693 950.995850,259.279694 
	C952.836060,263.911194 955.881897,267.553711 960.918457,268.096466 
	C967.259521,268.779816 973.692749,268.606812 980.874451,268.549927 
z"/>
<path fill="#0E9448" opacity="1.000000" stroke="none" 
	d="
M141.901520,177.034912 
	C132.960403,207.156906 123.796913,237.215652 115.202179,267.436157 
	C112.305031,277.623016 109.985878,288.134705 108.944824,298.650635 
	C107.459732,313.651886 107.419952,324.267670 119.678101,339.192108 
	C103.943230,339.192108 88.240067,339.640839 72.575729,339.053711 
	C59.447605,338.561676 47.071148,334.546906 35.690231,327.820007 
	C19.650772,318.339508 8.727745,304.895233 3.991991,286.692810 
	C3.253997,283.856201 2.520661,281.018372 1.392585,278.090576 
	C1.000000,268.312439 1.000000,258.624878 1.372377,248.313889 
	C4.283760,236.738129 6.400896,225.666946 9.446468,214.857346 
	C16.567743,189.581909 24.772161,164.595612 31.295813,139.173477 
	C35.613720,122.346954 35.189945,105.405289 23.422199,90.752838 
	C23.087719,90.336357 23.101347,89.640289 22.803381,88.506653 
	C30.138880,87.957146 37.060551,87.438637 44.320061,87.002640 
	C45.115421,87.021744 45.572948,86.958321 46.488232,86.984390 
	C70.651611,86.483353 93.218010,90.520081 113.770493,103.752350 
	C128.857162,115.184326 136.858063,130.565292 139.853851,148.473373 
	C141.421738,157.845795 141.274292,167.505142 141.901520,177.034912 
z"/>
<path fill="#F5F6F5" opacity="1.000000" stroke="none" 
	d="
M43.982224,86.920135 
	C37.060551,87.438637 30.138880,87.957146 22.803381,88.506653 
	C23.101347,89.640289 23.087719,90.336357 23.422199,90.752838 
	C35.189945,105.405289 35.613720,122.346954 31.295813,139.173477 
	C24.772161,164.595612 16.567743,189.581909 9.446468,214.857346 
	C6.400896,225.666946 4.283760,236.738129 1.372377,247.845230 
	C1.000000,165.738190 1.000000,83.476364 1.000000,1.000000 
	C86.354111,1.000000 171.708389,1.000000 257.531342,1.000002 
	C257.166321,1.359445 256.358612,1.947044 255.495178,2.045415 
	C222.020706,5.859163 197.512115,23.748165 178.992294,50.904335 
	C173.792099,58.529537 169.025192,66.450241 163.801575,74.639847 
	C162.002945,67.333702 160.919739,60.450321 158.610336,54.006390 
	C150.879242,32.434372 133.953262,20.812582 113.270454,13.771505 
	C95.625931,7.764753 77.257278,7.834157 58.910305,8.060173 
	C54.781601,8.111034 50.651737,8.067647 44.833752,8.067647 
	C56.347115,18.845177 57.876328,31.591749 56.952698,45.524204 
	C48.804741,46.640121 41.140469,47.161232 33.323448,47.692730 
	C36.634861,54.543892 40.511158,60.329773 42.206707,66.696426 
	C43.922314,73.138382 43.479546,80.155151 43.982224,86.920135 
z"/>
<path fill="#9D9D9D" opacity="1.000000" stroke="none" 
	d="
M1081.000000,316.531342 
	C1080.665894,315.516144 1080.046997,314.033417 1080.041138,312.548248 
	C1079.975098,295.692108 1080.003052,278.835602 1080.281250,261.498413 
	C1080.556763,261.017639 1081.000000,261.000000 1081.000000,261.000000 
	C1081.000000,279.354218 1081.000000,297.708466 1081.000000,316.531342 
z"/>
<path fill="#6A6A6A" opacity="1.000000" stroke="none" 
	d="
M1081.000000,260.531342 
	C1081.000000,261.000000 1080.556763,261.017639 1080.335693,261.035950 
	C1080.080566,245.326462 1080.046631,229.598648 1080.293701,213.410736 
	C1080.574707,212.950638 1081.000000,213.000000 1081.000000,213.000000 
	C1081.000000,228.687561 1081.000000,244.375122 1081.000000,260.531342 
z"/>
<path fill="#9D9D9D" opacity="1.000000" stroke="none" 
	d="
M1081.000000,212.531342 
	C1081.000000,213.000000 1080.574707,212.950638 1080.360840,212.942261 
	C1080.159180,202.067688 1080.171265,191.201462 1080.591675,180.167633 
	C1081.000000,190.687561 1081.000000,201.375122 1081.000000,212.531342 
z"/>
<path fill="#010101" opacity="1.000000" stroke="none" 
	d="
M560.170044,127.837906 
	C575.945251,145.334518 583.040222,166.287842 586.459167,188.653198 
	C590.773743,216.877701 587.048279,244.149429 574.646240,269.946045 
	C561.907593,296.443054 540.594116,312.345428 512.186035,319.148102 
	C485.522888,325.532928 459.100952,326.144226 433.122711,316.018188 
	C401.997345,303.885834 381.642242,281.801270 372.866638,249.527985 
	C364.724609,219.584686 364.408447,189.595779 374.950195,160.109970 
	C386.525116,127.734245 409.077026,107.259941 442.741364,99.256073 
	C474.069885,91.807541 504.721527,92.909813 533.583008,108.145981 
	C543.125061,113.183266 551.189270,121.020027 560.170044,127.837906 
M437.797058,208.506088 
	C437.630249,225.476654 441.641235,241.161041 452.393280,254.640182 
	C466.755768,272.645477 488.472015,272.611572 503.005737,254.672165 
	C521.709290,231.585846 522.747559,189.596115 505.207886,165.613220 
	C489.350494,143.930588 465.920410,143.817764 450.268372,165.648224 
	C441.362701,178.069336 437.767761,192.314682 437.797058,208.506088 
z"/>
<path fill="#010101" opacity="1.000000" stroke="none" 
	d="
M752.481567,319.469513 
	C734.191101,319.538239 716.363220,319.585205 698.535889,319.704254 
	C692.375305,319.745361 690.781250,318.563690 688.019470,311.280243 
	C675.401367,278.002991 662.829651,244.708054 650.163391,211.449112 
	C636.488342,175.541336 622.725952,139.666794 609.007080,103.775665 
	C608.481995,102.402023 608.012939,101.006966 607.342529,99.131866 
	C609.146912,99.009964 610.539551,98.835213 611.932251,98.833855 
	C633.928833,98.812408 655.925476,98.811806 677.922058,98.809677 
	C686.234131,98.808876 686.820862,99.150085 689.007324,107.080116 
	C701.385376,151.974747 713.712708,196.883362 726.058777,241.786835 
	C726.480347,243.320068 726.917419,244.849030 727.702454,247.645065 
	C742.478638,197.524033 756.902466,148.598495 771.411865,99.382500 
	C797.498718,99.382500 823.596741,99.382500 850.419006,99.382500 
	C848.988892,103.438271 847.679688,107.421715 846.189758,111.336380 
	C820.869324,177.863800 795.526062,244.382477 770.189148,310.903595 
	C766.805969,319.786041 766.445984,319.967896 752.481567,319.469513 
z"/>
<path fill="#0A0A0A" opacity="1.000000" stroke="none" 
	d="
M547.738159,417.949829 
	C551.117554,417.233398 552.070190,415.436066 551.866943,412.440735 
	C551.608887,408.637634 551.804443,404.803711 551.804443,400.592712 
	C554.723328,400.592712 557.443726,400.592712 560.926392,400.592712 
	C560.926392,406.822754 561.000305,413.235626 560.842529,419.642761 
	C560.820190,420.550232 559.857300,421.703766 559.013489,422.281067 
	C547.996338,429.818237 525.342468,430.588135 516.458923,414.118774 
	C511.561462,405.039215 511.716766,395.792694 516.960083,387.028748 
	C522.543701,377.695953 531.573975,374.344757 542.029114,374.561371 
	C549.380371,374.713623 556.125549,376.720703 561.770386,383.109344 
	C559.419983,384.665222 557.101562,386.199921 554.538513,387.896576 
	C550.517151,384.356354 544.788208,382.230591 538.116760,383.402496 
	C527.780273,385.218262 521.953857,392.983002 523.039001,403.417114 
	C523.973206,412.400421 531.809448,419.057526 541.433350,418.898956 
	C543.402588,418.866516 545.363831,418.344849 547.738159,417.949829 
z"/>
<path fill="#080808" opacity="1.000000" stroke="none" 
	d="
M1038.828613,391.770630 
	C1047.374512,385.330963 1055.856812,385.419281 1064.803955,391.202881 
	C1064.803955,384.763672 1064.803955,378.845520 1064.803955,372.566711 
	C1067.947388,372.566711 1070.804565,372.566711 1073.900879,372.566711 
	C1073.900879,390.512695 1073.900879,408.262909 1073.900879,426.589539 
	C1070.639893,425.674774 1066.021851,429.883240 1064.721436,423.221954 
	C1053.113159,429.352417 1042.883423,428.137848 1036.454468,419.865784 
	C1030.362671,412.027466 1031.268799,400.002075 1038.828613,391.770630 
M1049.443237,395.439758 
	C1048.184448,396.235962 1046.778931,396.870605 1045.692627,397.856842 
	C1041.389648,401.763641 1040.612183,408.647034 1043.757446,413.871155 
	C1046.484131,418.399902 1052.075562,420.388550 1057.257080,418.672577 
	C1062.367188,416.980255 1065.559937,411.497955 1064.924683,405.506470 
	C1064.140869,398.114929 1058.924927,394.470123 1049.443237,395.439758 
z"/>
<path fill="#070707" opacity="1.000000" stroke="none" 
	d="
M931.309937,424.864410 
	C928.491028,425.963684 925.685303,426.657013 921.895447,427.593567 
	C921.895447,419.875641 921.911682,413.137970 921.891052,406.400391 
	C921.867859,398.800812 919.104553,395.327698 913.003845,395.166260 
	C906.184021,394.985748 902.142212,399.068848 902.031067,406.471100 
	C901.931824,413.077820 902.010254,419.687225 902.010254,426.534424 
	C898.764526,426.534424 895.990540,426.534424 892.908936,426.534424 
	C892.908936,408.588837 892.908936,390.691406 892.908936,372.492493 
	C895.706848,372.492493 898.458069,372.492493 901.717651,372.492493 
	C901.717651,378.374542 901.717651,384.428070 901.717651,389.679871 
	C907.181580,388.760010 912.277527,387.128296 917.339600,387.227295 
	C925.369263,387.384338 930.715271,393.274506 931.071960,401.500671 
	C931.403259,409.142548 931.258362,416.805054 931.309937,424.864410 
z"/>
<path fill="#0B0B0B" opacity="1.000000" stroke="none" 
	d="
M618.221741,386.997742 
	C632.631714,387.097473 640.958618,396.051483 639.390137,409.924805 
	C629.459045,409.924805 619.441895,409.924805 609.278625,409.924805 
	C612.027893,419.804565 621.371277,421.904022 632.421875,415.369171 
	C633.880493,417.002350 635.395752,418.699005 636.890015,420.372162 
	C632.065613,426.973267 621.464050,429.287354 612.360352,425.835968 
	C603.223145,422.371948 598.735901,414.554474 599.794983,403.945221 
	C600.716370,394.714935 607.147034,388.657013 618.221741,386.997742 
M628.927246,398.951874 
	C625.433655,394.287994 620.602600,393.712738 615.605957,395.310333 
	C611.889893,396.498505 609.310059,399.236877 609.305603,403.612396 
	C616.405762,403.612396 623.260315,403.612396 630.703369,403.612396 
	C630.146973,402.010468 629.741211,400.842285 628.927246,398.951874 
z"/>
<path fill="#0C0C0C" opacity="1.000000" stroke="none" 
	d="
M837.829834,410.057068 
	C828.598938,410.056702 819.853027,410.056702 811.019592,410.056702 
	C812.975891,419.617462 822.440918,421.780853 833.928772,415.482788 
	C835.395569,417.088806 836.921387,418.759491 838.402222,420.380951 
	C832.627502,427.857147 820.447693,429.517853 810.937073,424.398712 
	C802.483276,419.848419 798.753845,409.498260 802.097839,399.866913 
	C805.233215,390.836090 814.628357,385.595184 824.920898,387.135223 
	C834.407715,388.554718 841.068176,396.395355 841.201050,406.244324 
	C841.229126,408.320251 841.467590,410.441040 837.829834,410.057068 
M827.064514,395.991913 
	C818.357056,392.589325 810.924438,396.238983 811.325256,403.561890 
	C818.168335,403.561890 824.999207,403.561890 833.349365,403.561890 
	C831.002808,400.566132 829.375122,398.488037 827.064514,395.991913 
z"/>
<path fill="#0B0B0B" opacity="1.000000" stroke="none" 
	d="
M684.468567,409.943024 
	C674.551453,410.049988 665.076904,410.049988 655.577515,410.049988 
	C656.937561,419.451752 667.241028,421.920654 678.464844,415.411682 
	C679.918945,417.064270 681.428528,418.779907 682.920105,420.475037 
	C677.929932,426.901581 667.728333,429.182129 658.779480,425.975006 
	C649.774353,422.747620 645.189941,415.546967 645.674622,405.391449 
	C646.101135,396.452881 651.523132,389.915314 660.413818,387.619568 
	C669.291687,385.327087 678.364258,388.477051 682.656860,395.773438 
	C685.173340,400.050781 687.023315,404.694244 684.468567,409.943024 
M657.138184,403.880280 
	C663.513733,403.880280 669.889343,403.880280 676.529907,403.880280 
	C676.054321,398.934509 673.475281,396.277161 669.610901,395.154724 
	C665.296448,393.901489 660.831787,394.173492 657.752197,397.887878 
	C656.574524,399.308289 656.730835,401.834717 657.138184,403.880280 
z"/>
<path fill="#0B0B0B" opacity="1.000000" stroke="none" 
	d="
M693.961853,392.201599 
	C693.970276,390.430084 693.970276,389.134125 693.970276,387.352997 
	C697.627930,388.164673 702.277710,384.444824 703.250000,389.988403 
	C708.033630,388.987213 712.768250,387.287323 717.546875,387.153076 
	C725.874695,386.919037 732.037476,392.481567 732.577881,400.758911 
	C733.127686,409.181549 732.699402,417.668030 732.699402,426.465332 
	C729.628784,426.465332 726.728455,426.465332 723.203247,426.465332 
	C723.203247,419.551453 723.231384,412.780640 723.195618,406.010132 
	C723.156372,398.590057 720.488525,395.311401 714.450134,395.147858 
	C708.042664,394.974304 703.658020,399.169647 703.338501,405.996216 
	C703.175293,409.484711 703.326416,412.987793 703.330383,416.484283 
	C703.334106,419.777954 703.331177,423.071594 703.331177,426.577087 
	C700.090393,426.577087 697.324585,426.577087 693.953430,426.577087 
	C693.953430,415.198853 693.953430,403.938019 693.961853,392.201599 
z"/>
<path fill="#0B0B0B" opacity="1.000000" stroke="none" 
	d="
M775.257202,409.994629 
	C775.257202,401.016418 775.257202,392.536865 775.257202,383.455750 
	C769.649597,383.455750 764.264832,383.455750 758.558655,383.455750 
	C758.558655,380.458191 758.558655,378.058502 758.558655,375.309906 
	C772.966980,375.309906 787.334900,375.309906 801.932129,375.309906 
	C801.932129,377.869110 801.932129,380.282349 801.932129,383.193573 
	C796.342163,383.193573 790.936523,383.193573 785.229248,383.193573 
	C785.229248,397.615601 785.229248,411.546906 785.229248,425.877136 
	C781.886963,425.877136 778.858582,425.877136 775.257141,425.877136 
	C775.257141,420.720215 775.257141,415.606750 775.257202,409.994629 
z"/>
<path fill="#0B0B0B" opacity="1.000000" stroke="none" 
	d="
M963.386353,409.994629 
	C963.386353,398.201721 963.386353,386.907501 963.386353,375.289886 
	C966.652832,375.289886 969.553162,375.289886 973.020264,375.289886 
	C973.020264,389.266937 973.020264,403.308746 973.020264,417.929108 
	C982.263489,417.929108 990.971497,417.929108 999.864746,417.929108 
	C999.864746,420.954773 999.864746,423.392120 999.864746,426.055237 
	C987.752502,426.055237 975.842285,426.055237 963.386292,426.055237 
	C963.386292,420.712738 963.386292,415.603027 963.386353,409.994629 
z"/>
<path fill="#0D0D0D" opacity="1.000000" stroke="none" 
	d="
M849.183350,397.430084 
	C857.185242,383.030762 880.172546,384.395325 884.947876,396.279114 
	C882.834229,397.547607 880.628052,398.871674 878.485962,400.157196 
	C871.058899,393.889587 864.357422,393.377991 859.490967,398.560944 
	C855.339111,402.982819 855.513794,411.565247 859.843079,415.858734 
	C864.735168,420.710419 871.714355,420.078430 878.180481,413.895416 
	C880.284912,415.093323 882.514526,416.362579 884.681824,417.596313 
	C881.953308,426.961700 868.003967,429.190186 859.346497,425.660126 
	C848.415955,421.203278 844.263123,409.894104 849.183350,397.430084 
z"/>
<path fill="#090909" opacity="1.000000" stroke="none" 
	d="
M1017.117859,386.637695 
	C1020.569519,387.469604 1023.928894,387.851746 1027.497192,388.257690 
	C1027.497192,390.456238 1027.497192,392.537292 1027.497192,395.073914 
	C1024.065186,395.073914 1020.821716,395.073914 1017.104980,395.073914 
	C1017.104980,401.771301 1016.844421,408.036926 1017.188232,414.269196 
	C1017.458374,419.164886 1020.325134,420.177155 1027.720093,418.418579 
	C1028.510498,420.318817 1029.318115,422.260162 1030.288818,424.593964 
	C1025.153076,427.937256 1019.840454,428.003967 1014.564270,425.978424 
	C1009.392883,423.993103 1007.789673,419.509064 1007.781738,414.310242 
	C1007.772339,408.181549 1007.779480,402.052856 1007.779480,395.566437 
	C1005.585022,395.333618 1003.683533,395.131897 1001.475098,394.897583 
	C1001.475098,392.711578 1001.475098,390.490601 1001.475098,388.039581 
	C1003.351685,387.896790 1005.134949,387.761108 1007.515015,387.579987 
	C1007.640503,384.903290 1007.768677,382.168060 1007.911743,379.116760 
	C1010.757874,379.116760 1013.504944,379.116760 1017.025574,379.116760 
	C1017.025574,381.364349 1017.025574,383.776154 1017.117859,386.637695 
z"/>
<path fill="#0A0A0A" opacity="1.000000" stroke="none" 
	d="
M593.000183,387.054749 
	C594.406677,389.555878 595.397827,392.095398 596.568726,395.095306 
	C593.297974,395.640167 591.135193,395.714539 589.174622,396.382568 
	C584.034241,398.133972 582.229004,402.250305 582.176941,407.315735 
	C582.112122,413.611877 582.161377,419.909210 582.161377,426.491760 
	C579.013062,426.491760 576.262451,426.491760 573.165283,426.491760 
	C573.165283,413.561737 573.165283,400.676819 573.165283,387.305389 
	C576.419250,388.401855 581.433044,384.180603 582.083618,390.764099 
	C585.525513,389.560913 589.055176,388.327026 593.000183,387.054749 
z"/>
<path fill="#C2DF46" opacity="1.000000" stroke="none" 
	d="
M142.215744,176.852264 
	C141.274292,167.505142 141.421738,157.845795 139.853851,148.473373 
	C136.858063,130.565292 128.857162,115.184326 113.888306,103.615959 
	C113.822922,103.208122 114.056953,102.940125 114.433350,102.957825 
	C117.172897,104.789909 119.668060,106.457336 121.877892,108.442406 
	C136.857513,121.898376 141.125763,139.880325 143.012894,158.846664 
	C143.178940,160.515518 143.366577,162.182236 143.544174,163.849930 
	C144.158905,163.920685 144.773636,163.991425 145.388367,164.062164 
	C145.924423,161.850769 146.417435,159.627853 147.004761,157.430145 
	C148.647156,151.284515 150.328552,145.149338 152.281143,139.019699 
	C152.758591,139.040283 152.949448,139.051208 153.140289,139.062119 
	C150.741974,148.687347 148.434189,158.336578 145.891953,167.923660 
	C145.096054,170.925095 143.668427,173.759003 142.215744,176.852264 
z"/>
<path fill="#C9CE4C" opacity="1.000000" stroke="none" 
	d="
M153.467865,138.833557 
	C152.949448,139.051208 152.758591,139.040283 152.274597,138.550323 
	C152.023026,126.027840 152.183762,114.003159 147.487244,102.507698 
	C146.694046,100.566185 147.475601,97.981293 147.759567,95.970032 
	C148.351959,97.342087 148.813522,98.415894 149.060776,99.536964 
	C150.717346,107.048347 152.328308,114.569801 153.954056,122.087982 
	C154.231689,124.664154 154.509323,127.240326 154.961151,130.146484 
	C154.688721,133.185989 154.242081,135.895508 153.467865,138.833557 
z"/>
<path fill="#CDD35C" opacity="1.000000" stroke="none" 
	d="
M44.320061,87.002647 
	C43.479546,80.155151 43.922314,73.138382 42.206707,66.696426 
	C40.511158,60.329773 36.634861,54.543892 33.323448,47.692730 
	C41.140469,47.161232 48.804741,46.640121 56.925186,45.981529 
	C57.381359,45.844055 57.732910,45.727459 58.152344,46.093765 
	C71.742050,47.895832 84.912331,49.331596 98.082603,50.767357 
	C98.459702,50.900047 98.836792,51.032734 99.784866,51.426834 
	C103.926254,53.127655 107.496666,54.567062 110.833466,56.270782 
	C109.355820,56.332104 108.090134,56.215908 106.871231,55.912025 
	C98.954292,53.938282 91.142937,51.277317 83.112411,50.092148 
	C73.838013,48.723408 64.380249,48.321564 54.988842,48.121143 
	C49.040535,47.994198 43.068024,49.001339 36.243328,49.572021 
	C42.572121,58.689888 45.758495,67.646873 45.277756,77.816475 
	C45.150673,80.504669 46.418976,83.258820 46.834473,86.082565 
	C46.355408,86.362030 46.158100,86.599518 46.030476,86.894905 
	C45.572948,86.958321 45.115421,87.021744 44.320061,87.002647 
z"/>
<path fill="#2A2906" opacity="1.000000" stroke="none" 
	d="
M97.991592,50.402615 
	C84.912331,49.331596 71.742050,47.895832 58.335831,46.118832 
	C68.443390,45.259136 78.850616,42.928715 88.981941,47.383743 
	C91.799118,48.622532 94.919380,49.172100 97.991592,50.402615 
z"/>
<path fill="#2A2906" opacity="1.000000" stroke="none" 
	d="
M153.968628,121.628700 
	C152.328308,114.569801 150.717346,107.048347 149.060776,99.536964 
	C148.813522,98.415894 148.351959,97.342087 147.745667,95.983582 
	C147.501801,95.720741 147.473404,95.703568 147.491684,95.330536 
	C146.909592,93.049126 146.309235,91.140747 145.808105,89.150414 
	C145.907349,89.068466 146.104004,88.902382 146.104004,88.902382 
	C147.072418,90.120743 148.417130,91.194885 148.948303,92.580818 
	C152.470032,101.769493 154.039108,111.334152 153.968628,121.628700 
z"/>
<path fill="#2A2906" opacity="1.000000" stroke="none" 
	d="
M119.103302,58.895668 
	C121.713402,60.079933 124.389587,61.140690 126.911484,62.489834 
	C128.737549,63.466728 130.500092,64.674820 132.009140,66.082031 
	C132.710907,66.736450 132.743271,68.108742 133.062073,69.553101 
	C133.045074,69.950592 132.934433,70.073196 132.682281,70.008911 
	C132.112701,69.818291 131.795288,69.691963 131.439255,69.567169 
	C131.400635,69.568710 131.387039,69.644814 131.328568,69.374153 
	C130.957092,68.940392 130.644089,68.777298 130.348526,68.597092 
	C130.365967,68.579994 130.373688,68.531754 130.245377,68.234604 
	C127.416542,65.937576 124.716026,63.937702 122.011635,61.969063 
	C122.007767,62.000294 122.066360,61.977314 121.906891,61.711548 
	C120.757050,60.721024 119.766678,59.996273 118.857330,59.176926 
	C118.938354,59.082333 119.103302,58.895668 119.103302,58.895668 
z"/>
<path fill="#2A2906" opacity="1.000000" stroke="none" 
	d="
M133.098969,69.888031 
	C134.957748,69.476212 136.762634,69.126961 139.482819,68.600578 
	C139.637390,71.405975 139.798462,74.329453 139.925766,77.671646 
	C139.891983,78.090355 139.698349,78.261772 139.440582,78.107178 
	C138.489334,77.258110 137.795822,76.563629 137.077881,75.923317 
	C137.053467,75.977478 137.146774,75.903908 137.085724,75.586792 
	C136.017822,74.173561 135.010971,73.077454 133.912125,71.721069 
	C133.524887,70.998260 133.229660,70.535728 132.934433,70.073196 
	C132.934433,70.073196 133.045074,69.950592 133.098969,69.888031 
z"/>
<path fill="#2A2906" opacity="1.000000" stroke="none" 
	d="
M139.987976,78.003746 
	C144.170364,80.069618 146.598145,83.195137 146.072647,88.487015 
	C146.104004,88.902382 145.907349,89.068466 145.560272,88.914986 
	C143.640045,86.075195 142.066910,83.388885 140.496460,80.644760 
	C140.499161,80.586945 140.476837,80.473358 140.426453,80.185379 
	C140.150177,79.352196 139.924255,78.806984 139.698334,78.261772 
	C139.698349,78.261772 139.891983,78.090355 139.987976,78.003746 
z"/>
<path fill="#2A2906" opacity="1.000000" stroke="none" 
	d="
M111.067070,56.006470 
	C107.496666,54.567062 103.926254,53.127655 100.085190,51.440331 
	C100.817078,50.945759 102.013161,50.220940 102.788826,50.534874 
	C106.225922,51.925945 109.542313,53.615265 112.928497,55.622482 
	C112.954605,56.048290 112.792511,56.220699 112.502312,56.197624 
	C111.830429,56.118523 111.448753,56.062496 111.067070,56.006470 
z"/>
<path fill="#2A2906" opacity="1.000000" stroke="none" 
	d="
M113.034973,55.961456 
	C115.041214,56.657154 116.967079,57.439686 118.998123,58.558945 
	C119.103302,58.895668 118.938354,59.082333 118.515610,59.108219 
	C116.385048,58.391796 114.677231,57.649490 112.917664,56.737503 
	C112.865898,56.567825 112.792511,56.220699 112.792511,56.220699 
	C112.792511,56.220699 112.954605,56.048290 113.034973,55.961456 
z"/>
<path fill="#F4F4F4" opacity="1.000000" stroke="none" 
	d="
M980.480347,268.676636 
	C973.692749,268.606812 967.259521,268.779816 960.918457,268.096466 
	C955.881897,267.553711 952.836060,263.911194 950.995850,259.279694 
	C945.356140,245.085693 951.124023,231.988052 965.375000,226.703156 
	C976.662537,222.517227 992.701477,220.202301 1005.020508,221.202042 
	C1004.604004,229.392761 1005.081482,237.795181 1003.558167,245.817703 
	C1001.229736,258.080017 992.540161,265.056213 980.480347,268.676636 
z"/>
<path fill="#C2DF46" opacity="1.000000" stroke="none" 
	d="
M46.488232,86.984390 
	C46.158100,86.599518 46.355408,86.362030 47.297451,86.086960 
	C54.288662,85.405632 60.602295,84.789108 66.923798,84.268051 
	C67.838715,84.192635 68.829002,84.464386 69.719688,84.766411 
	C72.651031,85.760406 75.484032,87.442238 78.477745,87.784409 
	C90.256020,89.130669 100.890770,93.434059 110.893234,99.517914 
	C112.169495,100.294174 113.012985,101.781960 114.056953,102.940125 
	C114.056953,102.940125 113.822922,103.208122 113.705109,103.344513 
	C93.218010,90.520081 70.651611,86.483353 46.488232,86.984390 
z"/>
<path fill="#F5F5F5" opacity="1.000000" stroke="none" 
	d="
M437.795410,208.012787 
	C437.767761,192.314682 441.362701,178.069336 450.268372,165.648224 
	C465.920410,143.817764 489.350494,143.930588 505.207886,165.613220 
	C522.747559,189.596115 521.709290,231.585846 503.005737,254.672165 
	C488.472015,272.611572 466.755768,272.645477 452.393280,254.640182 
	C441.641235,241.161041 437.630249,225.476654 437.795410,208.012787 
z"/>
<path fill="#F1F1F1" opacity="1.000000" stroke="none" 
	d="
M1049.839355,395.341003 
	C1058.924927,394.470123 1064.140869,398.114929 1064.924683,405.506470 
	C1065.559937,411.497955 1062.367188,416.980255 1057.257080,418.672577 
	C1052.075562,420.388550 1046.484131,418.399902 1043.757446,413.871155 
	C1040.612183,408.647034 1041.389648,401.763641 1045.692627,397.856842 
	C1046.778931,396.870605 1048.184448,396.235962 1049.839355,395.341003 
z"/>
<path fill="#EAEAEA" opacity="1.000000" stroke="none" 
	d="
M629.131348,399.312988 
	C629.741211,400.842285 630.146973,402.010468 630.703369,403.612396 
	C623.260315,403.612396 616.405762,403.612396 609.305603,403.612396 
	C609.310059,399.236877 611.889893,396.498505 615.605957,395.310333 
	C620.602600,393.712738 625.433655,394.287994 629.131348,399.312988 
z"/>
<path fill="#EAEAEA" opacity="1.000000" stroke="none" 
	d="
M827.406006,396.200928 
	C829.375122,398.488037 831.002808,400.566132 833.349365,403.561890 
	C824.999207,403.561890 818.168335,403.561890 811.325256,403.561890 
	C810.924438,396.238983 818.357056,392.589325 827.406006,396.200928 
z"/>
<path fill="#E9E9E9" opacity="1.000000" stroke="none" 
	d="
M656.708740,403.868713 
	C656.730835,401.834717 656.574524,399.308289 657.752197,397.887878 
	C660.831787,394.173492 665.296448,393.901489 669.610901,395.154724 
	C673.475281,396.277161 676.054321,398.934509 676.529907,403.880280 
	C669.889343,403.880280 663.513733,403.880280 656.708740,403.868713 
z"/>
<path fill="#DAE028" opacity="1.000000" stroke="none" 
	d="
M114.433350,102.957825 
	C113.012985,101.781960 112.169495,100.294174 110.893234,99.517914 
	C100.890770,93.434059 90.256020,89.130669 78.477745,87.784409 
	C75.484032,87.442238 72.651031,85.760406 69.719688,84.766411 
	C68.829002,84.464386 67.838715,84.192635 66.923798,84.268051 
	C60.602295,84.789108 54.288662,85.405632 47.509521,85.987083 
	C46.418976,83.258820 45.150673,80.504669 45.277756,77.816475 
	C45.758495,67.646873 42.572121,58.689888 36.243328,49.572021 
	C43.068024,49.001339 49.040535,47.994198 54.988842,48.121143 
	C64.380249,48.321564 73.838013,48.723408 83.112411,50.092148 
	C91.142937,51.277317 98.954292,53.938282 106.871231,55.912025 
	C108.090134,56.215908 109.355820,56.332104 110.833466,56.270782 
	C111.448753,56.062496 111.830429,56.118523 112.502312,56.197624 
	C112.792511,56.220699 112.865898,56.567825 112.964439,57.092850 
	C116.064110,59.071022 119.065231,60.524170 122.066360,61.977314 
	C122.066360,61.977314 122.007767,62.000294 122.031723,62.321594 
	C124.025108,65.740425 125.962486,68.883224 130.373688,68.531754 
	C130.373688,68.531754 130.365967,68.579994 130.354309,68.904114 
	C130.690781,69.367088 131.038910,69.505951 131.387039,69.644814 
	C131.387039,69.644814 131.400635,69.568710 131.315872,69.907715 
	C132.143250,71.187378 133.055405,72.128036 134.018524,73.408020 
	C135.095245,74.466202 136.121017,75.185051 137.146774,75.903908 
	C137.146774,75.903908 137.053467,75.977478 137.038971,76.311943 
	C138.175247,77.922058 139.326050,79.197708 140.476837,80.473358 
	C140.476837,80.473358 140.499161,80.586945 140.334290,81.046127 
	C139.736755,87.713089 144.888916,91.047890 147.473404,95.703568 
	C147.473404,95.703568 147.501801,95.720741 147.515686,95.707199 
	C147.475601,97.981293 146.694046,100.566185 147.487244,102.507698 
	C152.183762,114.003159 152.023026,126.027840 151.988007,138.540649 
	C150.328552,145.149338 148.647156,151.284515 147.004761,157.430145 
	C146.417435,159.627853 145.924423,161.850769 145.388367,164.062164 
	C144.773636,163.991425 144.158905,163.920685 143.544174,163.849930 
	C143.366577,162.182236 143.178940,160.515518 143.012894,158.846664 
	C141.125763,139.880325 136.857513,121.898376 121.877892,108.442406 
	C119.668060,106.457336 117.172897,104.789909 114.433350,102.957825 
z"/>
<path fill="#C9CE4C" opacity="1.000000" stroke="none" 
	d="
M147.491684,95.330536 
	C144.888916,91.047890 139.736755,87.713089 140.331589,81.103943 
	C142.066910,83.388885 143.640045,86.075195 145.461029,88.996933 
	C146.309235,91.140747 146.909592,93.049126 147.491684,95.330536 
z"/>
<path fill="#CDD35C" opacity="1.000000" stroke="none" 
	d="
M130.245377,68.234604 
	C125.962486,68.883224 124.025108,65.740425 122.035599,62.290363 
	C124.716026,63.937702 127.416542,65.937576 130.245377,68.234604 
z"/>
<path fill="#CDD35C" opacity="1.000000" stroke="none" 
	d="
M121.906891,61.711548 
	C119.065231,60.524170 116.064110,59.071022 113.016205,57.262527 
	C114.677231,57.649490 116.385048,58.391796 118.434586,59.202812 
	C119.766678,59.996273 120.757050,60.721024 121.906891,61.711548 
z"/>
<path fill="#CDD35C" opacity="1.000000" stroke="none" 
	d="
M133.967545,73.068695 
	C133.055405,72.128036 132.143250,71.187378 131.354492,69.906174 
	C131.795288,69.691963 132.112701,69.818291 132.682281,70.008911 
	C133.229660,70.535728 133.524887,70.998260 133.902863,71.992920 
	C133.979584,72.706261 133.973572,72.887474 133.967545,73.068695 
z"/>
<path fill="#CDD35C" opacity="1.000000" stroke="none" 
	d="
M131.328568,69.374153 
	C131.038910,69.505951 130.690781,69.367088 130.336868,68.921219 
	C130.644089,68.777298 130.957092,68.940392 131.328568,69.374153 
z"/>
<path fill="#C9CE4C" opacity="1.000000" stroke="none" 
	d="
M140.426453,80.185379 
	C139.326050,79.197708 138.175247,77.922058 137.063385,76.257782 
	C137.795822,76.563629 138.489334,77.258110 139.440582,78.107178 
	C139.924255,78.806984 140.150177,79.352196 140.426453,80.185379 
z"/>
<path fill="#C9CE4C" opacity="1.000000" stroke="none" 
	d="
M134.018524,73.408020 
	C133.973572,72.887474 133.979584,72.706261 133.994873,72.253197 
	C135.010971,73.077454 136.017822,74.173561 137.085724,75.586792 
	C136.121017,75.185051 135.095245,74.466202 134.018524,73.408020 
z"/>
</svg>